<svg width="19" height="22" viewBox="0 0 19 22" fill="none" xmlns="http://www.w3.org/2000/svg">
<path d="M17.6125 3.83764C17.332 3.58489 16.8051 3.61564 16.2287 3.72252L16.2298 3.72139C15.0906 3.86502 14.8255 1.99264 14.2341 1.32589C14.0099 1.07824 13.7298 0.887671 13.4171 0.770011C13.1044 0.652352 12.7682 0.611001 12.4363 0.649395C11.1771 0.83802 10.6791 2.39952 10.6127 2.60689C10.4162 3.24557 10.4141 3.92828 10.6067 4.56814C10.783 5.17166 10.745 5.81761 10.4991 6.39627C9.0813 9.52959 6.93271 12.2772 4.23359 14.4085C3.43457 14.3736 2.64461 14.5892 1.97422 15.0254C1.53659 15.313 0.684219 15.8736 0.652344 16.8036C0.663113 17.0891 0.734409 17.369 0.861508 17.6248C0.988608 17.8806 1.16861 18.1065 1.38959 18.2875C1.67122 18.541 2.19959 18.5095 2.77709 18.4023L2.77259 18.4041C3.91184 18.2605 4.17697 20.1329 4.76834 20.7993C4.99257 21.0469 5.27265 21.2375 5.58532 21.3552C5.89799 21.4728 6.23423 21.5142 6.56609 21.4758C7.82534 21.2871 8.32334 19.7256 8.38972 19.5183C8.58627 18.8796 8.58835 18.1969 8.39572 17.557C8.2661 17.1462 8.26741 16.7052 8.39947 16.2951L8.53822 16.2441L11.7793 10.9769L11.9057 10.7706C12.7453 9.65475 13.6951 8.62619 14.7407 7.70052C15.5472 7.74406 16.3471 7.53413 17.0282 7.10014C17.4658 6.81214 18.3182 6.25189 18.3501 5.32189C18.3394 5.03638 18.2681 4.75641 18.141 4.50053C18.0139 4.24464 17.8339 4.01869 17.6128 3.83764H17.6125Z" fill="#FFD978"/>
</svg>
