<svg width="274" height="260" viewBox="0 0 274 260" fill="none" xmlns="http://www.w3.org/2000/svg">
<g clip-path="url(#clip0)">
<path d="M149.203 246.706C217.85 246.706 273.5 240.491 273.5 232.824C273.5 225.158 217.85 218.943 149.203 218.943C80.5559 218.943 24.9062 225.158 24.9062 232.824C24.9062 240.491 80.5559 246.706 149.203 246.706Z" fill="#3F3D56"/>
<path d="M210.848 217.464L212.991 224.066C212.991 224.066 223.315 234.727 219.581 237.617C215.847 240.507 207.47 225.274 207.47 225.274L205.926 217.82L210.848 217.464Z" fill="#FFB8B8"/>
<path d="M191.04 166.367L194.165 165.326C194.165 165.326 199.026 166.714 199.72 171.572C200.414 176.431 205.622 201.071 205.622 201.071C205.622 201.071 207.706 202.112 206.317 203.847C204.928 205.582 213.261 221.199 213.261 221.199L206.664 224.322C206.664 224.322 193.47 210.441 193.47 209.053C193.47 207.664 193.818 206.276 193.818 204.888C193.818 203.5 193.47 203.5 193.818 202.459C194.049 201.552 194.166 200.619 194.165 199.682L191.734 194.13L191.04 166.367Z" fill="#6C63FF"/>
<path d="M31.8929 190.172C49.2307 190.172 63.2858 161.508 63.2858 126.148C63.2858 90.7879 49.2307 62.123 31.8929 62.123C14.5551 62.123 0.5 90.7879 0.5 126.148C0.5 161.508 14.5551 190.172 31.8929 190.172Z" fill="#6C63FF"/>
<path d="M31.6051 126.812C33.171 98.9422 36.3261 80.1173 36.3579 79.9304L35.6733 79.8145C35.6416 80.0015 32.4809 98.8567 30.9124 126.762C29.4649 152.517 29.1157 191.473 35.6731 230.799L36.358 230.685C29.8118 191.426 30.1602 152.529 31.6051 126.812Z" fill="#3F3D56"/>
<path d="M59.9505 113.164L31.5664 128.349L31.8941 128.961L60.2782 113.776L59.9505 113.164Z" fill="#3F3D56"/>
<path d="M1.93007 120.774L1.60254 121.386L29.9907 136.564L30.3182 135.952L1.93007 120.774Z" fill="#3F3D56"/>
<path d="M106.244 175.225C129.969 175.225 149.202 136 149.202 87.6127C149.202 39.2255 129.969 0 106.244 0C82.5184 0 63.2852 39.2255 63.2852 87.6127C63.2852 136 82.5184 175.225 106.244 175.225Z" fill="#E6E6E6"/>
<path d="M105.722 88.5105C107.866 50.3671 112.184 24.6027 112.228 24.3469L111.543 24.231C111.5 24.487 107.176 50.2815 105.03 88.4608C103.049 123.698 102.571 176.996 111.543 230.8L112.228 230.686C103.268 176.949 103.745 123.71 105.722 88.5105Z" fill="#3F3D56"/>
<path d="M144.7 69.9577L105.858 90.7373L106.186 91.3493L145.028 70.5697L144.7 69.9577Z" fill="#3F3D56"/>
<path d="M65.183 80.3723L64.8555 80.9844L103.703 101.753L104.03 101.141L65.183 80.3723Z" fill="#3F3D56"/>
<path d="M70.4577 209.366C79.3221 209.366 86.5082 194.71 86.5082 176.631C86.5082 158.553 79.3221 143.897 70.4577 143.897C61.5933 143.897 54.4072 158.553 54.4072 176.631C54.4072 194.71 61.5933 209.366 70.4577 209.366Z" fill="#E6E6E6"/>
<path d="M70.4432 178.042L70.5382 178.219L85.0504 170.455L84.7228 169.843L70.4735 177.467C71.262 162.96 72.8747 153.222 72.9073 153.03L72.2227 152.914C72.1872 153.123 70.271 164.688 69.5909 181.421L55.2191 173.733L54.8916 174.345L69.4037 182.109L69.577 181.785C69.0328 195.596 69.3378 212.866 72.2225 230.166L72.9074 230.052C69.7623 211.189 69.693 192.362 70.4432 178.042Z" fill="#3F3D56"/>
<path d="M195.289 133.424C189.708 123.916 178.667 123.473 178.667 123.473C178.667 123.473 167.908 122.086 161.006 136.566C154.573 150.062 145.694 163.093 159.576 166.252L162.084 158.384L163.637 166.838C165.614 166.982 167.596 167.016 169.577 166.941C184.444 166.457 198.602 167.082 198.146 161.704C197.54 154.554 200.659 142.572 195.289 133.424Z" fill="#2F2E41"/>
<path d="M156.389 209.576C156.233 210.57 156.007 211.551 155.712 212.513C155.38 213.454 154.867 214.325 154.564 215.276C153.596 218.307 154.938 221.686 157.08 224.026C158.932 226.043 161.331 227.479 163.985 228.159C165.917 228.649 167.927 228.72 169.919 228.788C175.434 228.976 181.091 229.145 186.317 227.358C187.968 226.779 189.563 226.049 191.081 225.176C191.561 224.945 191.983 224.61 192.317 224.195C192.715 223.623 192.766 222.881 192.763 222.182C192.751 219.825 192.277 217.479 192.39 215.125C192.452 213.821 192.694 212.518 192.575 211.218C192.415 209.746 191.804 208.36 190.826 207.249C189.848 206.138 188.55 205.355 187.111 205.009C185.628 204.688 184.091 204.862 182.581 205.009C178.664 205.388 174.729 205.566 170.794 205.54C166.772 205.514 162.776 204.895 158.775 204.831C157.591 204.812 157.615 205.179 157.238 206.334C156.891 207.397 156.608 208.48 156.389 209.576Z" fill="#2F2E41"/>
<path d="M140.663 207.66C139.583 207.386 138.468 207.267 137.354 207.305C136.182 207.379 135.039 207.699 133.999 208.244C132.96 208.789 132.047 209.547 131.32 210.468C130.6 211.403 130.083 212.478 129.801 213.624C129.52 214.77 129.48 215.961 129.684 217.124C129.954 218.382 130.395 219.598 130.996 220.737C131.874 222.533 132.926 224.325 134.551 225.475C135.529 226.108 136.584 226.614 137.689 226.981L146.248 230.232C147.507 230.71 148.766 231.188 150.038 231.632C156.422 233.857 163.083 235.192 169.832 235.599C171.887 235.723 173.973 235.757 175.978 235.285C176.468 235.22 176.917 234.976 177.237 234.6C177.4 234.313 177.496 233.992 177.518 233.663L178.045 229.946C178.163 229.428 178.147 228.889 178 228.379C177.759 227.754 177.154 227.361 176.578 227.028C170.951 223.769 164.381 221.972 159.645 217.5C158.53 216.447 157.597 214.779 156.243 214.064C154.706 213.253 152.897 212.79 151.309 212.043C147.838 210.409 144.426 208.532 140.663 207.66Z" fill="#2F2E41"/>
<path opacity="0.1" d="M149.208 212.672C152.233 213.627 165.005 220.248 167.195 222.56C166.901 222.666 156.945 217.041 156.646 216.951C153.931 216.129 151.2 215.302 148.621 214.1C148.103 213.858 145.251 212.721 145.38 212.061C145.526 211.316 148.671 212.502 149.208 212.672Z" fill="black"/>
<path d="M186.947 237.527C187.119 237.54 187.29 237.489 187.427 237.385C187.487 237.307 187.532 237.217 187.557 237.122C187.583 237.026 187.59 236.927 187.577 236.829L187.563 231.765C186.118 231.071 184.503 230.849 182.917 230.635L175.518 229.638C175.688 229.661 174.361 232.851 174.564 233.277C174.923 234.027 177.663 234.693 178.437 235.047C181.125 236.279 183.919 237.633 186.947 237.527Z" fill="#FFB8B8"/>
<path d="M163.733 231.747C162.336 231.971 160.776 232.17 159.872 233.266C158.724 234.656 159.213 236.729 159.76 238.452C159.841 238.799 160.004 239.123 160.236 239.395C160.61 239.767 161.182 239.821 161.706 239.854C162.98 239.936 164.336 240 165.449 239.369C165.953 239.033 166.439 238.67 166.903 238.28C167.723 237.73 168.625 237.314 169.576 237.048C171.322 236.494 173.12 236.12 174.943 235.933C175.661 235.9 176.371 235.773 177.057 235.557C177.4 235.445 177.713 235.255 177.971 235.002C178.23 234.749 178.426 234.44 178.546 234.1C178.803 233.179 178.273 232.241 177.764 231.434C177.13 230.429 176.459 229.37 175.514 228.63C174.135 227.55 173.453 228.379 172.064 229.07C169.438 230.377 166.629 231.28 163.733 231.747Z" fill="#FFB8B8"/>
<path d="M160.082 233.015L151.211 230.372C150.148 229.999 149.036 229.781 147.91 229.727C146.785 229.728 145.608 230.1 144.878 230.963C144.19 231.777 143.994 232.889 143.822 233.945L143.455 236.202C143.211 237.34 143.141 238.509 143.25 239.668C143.418 240.818 144 241.967 145.012 242.524C146.24 243.199 147.744 242.869 149.114 242.587C151.881 242.017 154.696 241.713 157.52 241.678C158.582 241.665 159.696 241.679 160.634 241.178C161.749 240.582 162.417 239.322 162.531 238.054C162.706 236.126 162.068 233.607 160.082 233.015Z" fill="#2F2E41"/>
<path d="M190.435 230.712C191.585 230.509 192.599 229.85 193.701 229.461C195.252 228.913 196.933 228.913 198.576 228.92C199.18 228.922 199.822 228.935 200.324 229.272C201.048 229.758 201.234 230.731 201.357 231.598L202.099 236.835C202.239 237.82 202.378 238.831 202.16 239.801C201.942 240.772 201.286 241.707 200.331 241.957C199.171 242.261 198.034 241.514 196.939 241.024C194.201 239.797 191.019 240.111 188.165 239.194C187.635 239.024 187.068 238.763 186.852 238.247C186.754 237.956 186.719 237.648 186.75 237.342C186.798 235.659 186.446 233.361 186.949 231.752C187.401 230.306 189.151 230.712 190.435 230.712Z" fill="#2F2E41"/>
<path d="M209.208 205.553C210.979 205.105 212.817 204.978 214.634 205.179C216.085 205.34 217.579 205.747 218.639 206.759C219.928 207.992 220.342 209.897 220.376 211.688C220.435 215.25 219.262 218.722 217.057 221.521C216.52 222.226 215.88 222.847 215.159 223.363C214.383 223.852 213.555 224.255 212.69 224.562L193.524 232.184C188.481 234.189 183.421 236.2 178.162 237.522C178.018 237.592 177.861 237.632 177.702 237.64C177.542 237.648 177.382 237.624 177.232 237.569C177.081 237.514 176.943 237.429 176.827 237.32C176.71 237.211 176.616 237.079 176.551 236.933C174.87 234.513 173.462 231.915 172.35 229.186C172.3 229.099 172.269 229.002 172.26 228.902C172.251 228.802 172.263 228.701 172.296 228.606C172.366 228.5 172.464 228.416 172.579 228.363L186.136 220.51C187.131 219.986 188.057 219.343 188.895 218.593C189.482 218.02 189.961 217.346 190.312 216.605C190.593 216.013 190.619 214.617 190.978 214.179C191.329 213.751 192.531 213.717 193.087 213.548C193.87 213.306 194.637 213.014 195.382 212.673C198.415 211.306 201.115 209.318 204.022 207.717C205.651 206.778 207.394 206.05 209.208 205.553Z" fill="#2F2E41"/>
<path opacity="0.1" d="M201.521 211.417C199.192 213.181 196.177 214.802 193.868 216.612C193.081 217.23 179.947 224.674 179.762 225.662C181.915 226.028 195.634 216.353 197.596 215.387C199.559 214.422 201.299 213.06 203.023 211.709C203.463 211.364 205.325 210.329 204.063 209.944C203.353 209.727 202.046 211.064 201.521 211.417Z" fill="black"/>
<path d="M178.195 157.344C185.481 157.344 191.388 151.439 191.388 144.156C191.388 136.873 185.481 130.969 178.195 130.969C170.908 130.969 165.001 136.873 165.001 144.156C165.001 151.439 170.908 157.344 178.195 157.344Z" fill="#FFB8B8"/>
<path d="M183.749 155.262C183.749 155.262 181.666 160.467 185.485 162.549C189.304 164.632 173.68 181.289 173.68 181.289L166.736 161.161C166.736 161.161 172.639 159.079 171.597 153.526L183.749 155.262Z" fill="#FFB8B8"/>
<path d="M175.069 169.49L183.478 160.212L194.86 166.02L193.124 206.97L190.346 210.093C190.346 210.093 178.541 220.505 160.487 211.829C160.487 211.829 154.237 206.623 154.585 198.641C154.932 190.659 153.89 189.618 153.89 189.618L153.543 161.508L170.685 158.146L175.069 169.49Z" fill="#6C63FF"/>
<path d="M136.514 213.647L134.37 220.249C134.37 220.249 124.046 230.91 127.78 233.8C131.514 236.689 139.891 221.456 139.891 221.456L141.435 214.003L136.514 213.647Z" fill="#FFB8B8"/>
<path d="M156.32 162.549L153.195 161.508C153.195 161.508 148.335 162.896 147.64 167.755C146.946 172.614 141.738 197.253 141.738 197.253C141.738 197.253 139.655 198.294 141.044 200.03C142.432 201.765 134.1 217.381 134.1 217.381L140.696 220.505C140.696 220.505 153.89 206.623 153.89 205.235C153.89 203.847 153.543 202.459 153.543 201.071C153.543 199.683 153.89 199.683 153.543 198.641C153.311 197.734 153.194 196.801 153.195 195.865L155.626 190.312L156.32 162.549Z" fill="#6C63FF"/>
<path d="M192.822 132.507L181.913 126.747L166.849 129.103L163.732 142.981L171.491 142.681L173.658 137.582V142.596L177.238 142.457L179.316 134.34L180.615 142.981L193.341 142.719L192.822 132.507Z" fill="#2F2E41"/>
<path d="M115.494 221.785V241.803H54.3242C54.3245 236.494 56.4345 231.403 60.1901 227.649C63.9457 223.895 69.0394 221.786 74.3506 221.785C80.0863 219.998 86.7178 219.429 93.9117 219.617C100.699 219.79 107.987 220.64 115.494 221.785Z" fill="#FF6584"/>
<path d="M106.756 237.436H135.52C136.003 237.436 136.466 237.627 136.808 237.969C137.149 238.31 137.341 238.773 137.341 239.255C137.341 239.738 137.149 240.201 136.808 240.542C136.466 240.883 136.003 241.075 135.52 241.075H106.756V237.436Z" fill="#3F3D56"/>
<path d="M111.737 204.655L119.447 195.313C119.625 194.943 119.911 194.635 120.268 194.431C120.625 194.227 121.036 194.137 121.445 194.172C121.855 194.207 122.244 194.366 122.561 194.627C122.878 194.889 123.108 195.241 123.22 195.636L126.26 206.366L111.737 204.655Z" fill="#3F3D56"/>
<path d="M102.387 209.413L105.3 197.658C105.3 197.247 105.425 196.846 105.658 196.508C105.892 196.17 106.223 195.911 106.608 195.766C106.992 195.62 107.412 195.595 107.811 195.694C108.21 195.793 108.569 196.011 108.841 196.319L116.223 204.681L102.387 209.413Z" fill="#FF6584"/>
<path d="M54.3242 241.803H60.1499V254.177C60.1499 254.942 59.9993 255.699 59.7065 256.406C59.4137 257.112 58.9846 257.754 58.4436 258.295C57.9027 258.835 57.2604 259.264 56.5536 259.557C55.8468 259.85 55.0893 260 54.3242 260V241.803Z" fill="#FF6584"/>
<path d="M105.663 238.164H134.428C134.91 238.164 135.373 238.355 135.715 238.697C136.056 239.038 136.248 239.501 136.248 239.983C136.248 240.466 136.056 240.929 135.715 241.27C135.373 241.611 134.91 241.803 134.428 241.803H105.663V238.164Z" fill="#FF6584"/>
<path opacity="0.2" d="M115.494 221.785V241.691C112.539 242.005 109.551 241.646 106.755 240.639C103.959 239.633 101.427 238.007 99.35 235.882C97.273 233.758 95.7047 231.191 94.7628 228.373C93.821 225.556 93.5302 222.562 93.9122 219.616C100.7 219.79 107.988 220.64 115.494 221.785Z" fill="black"/>
<path d="M115.494 241.803C126.353 241.803 135.156 233.004 135.156 222.15C135.156 211.296 126.353 202.498 115.494 202.498C104.635 202.498 95.832 211.296 95.832 222.15C95.832 233.004 104.635 241.803 115.494 241.803Z" fill="#FF6584"/>
<path d="M134.428 228.701C135.634 228.701 136.612 226.42 136.612 223.606C136.612 220.792 135.634 218.511 134.428 218.511C133.221 218.511 132.243 220.792 132.243 223.606C132.243 226.42 133.221 228.701 134.428 228.701Z" fill="#3F3D56"/>
<path d="M129.148 219.603C129.449 219.603 129.694 219.032 129.694 218.329C129.694 217.625 129.449 217.055 129.148 217.055C128.846 217.055 128.602 217.625 128.602 218.329C128.602 219.032 128.846 219.603 129.148 219.603Z" fill="#3F3D56"/>
<path d="M133.154 217.055C133.455 217.055 133.7 216.485 133.7 215.781C133.7 215.078 133.455 214.507 133.154 214.507C132.852 214.507 132.607 215.078 132.607 215.781C132.607 216.485 132.852 217.055 133.154 217.055Z" fill="#3F3D56"/>
<path d="M113.844 202.279C113.844 202.279 112.751 200.379 112.751 199.22L113.844 202.279Z" fill="#3F3D56"/>
<path d="M114.325 201.05C114.325 201.05 114.921 198.941 115.75 198.13L114.325 201.05Z" fill="#3F3D56"/>
</g>
<defs>
<clipPath id="clip0">
<rect width="273" height="260" fill="white" transform="translate(0.5)"/>
</clipPath>
</defs>
</svg>
